<svg xmlns="http://www.w3.org/2000/svg" xmlns:xlink="http://www.w3.org/1999/xlink" width="500" zoomAndPan="magnify" viewBox="0 0 375 374.999991" height="500" preserveAspectRatio="xMidYMid meet" version="1.0"><defs><clipPath id="9cdc221399"><path d="M 75 0 L 300 0 C 341.421875 0 375 33.578125 375 75 L 375 300 C 375 341.421875 341.421875 375 300 375 L 75 375 C 33.578125 375 0 341.421875 0 300 L 0 75 C 0 33.578125 33.578125 0 75 0 Z M 75 0 " clip-rule="nonzero"/></clipPath><clipPath id="3a843ea0ff"><path d="M 0 0 L 375 0 L 375 375 L 0 375 Z M 0 0 " clip-rule="nonzero"/></clipPath><clipPath id="05ca7d61ca"><path d="M 75 0 L 300 0 C 341.421875 0 375 33.578125 375 75 L 375 300 C 375 341.421875 341.421875 375 300 375 L 75 375 C 33.578125 375 0 341.421875 0 300 L 0 75 C 0 33.578125 33.578125 0 75 0 Z M 75 0 " clip-rule="nonzero"/></clipPath><clipPath id="f956ec576d"><rect x="0" width="375" y="0" height="375"/></clipPath><clipPath id="88ddf19f1b"><path d="M 66 12.480469 L 308 12.480469 L 308 362 L 66 362 Z M 66 12.480469 " clip-rule="nonzero"/></clipPath></defs><g clip-path="url(#9cdc221399)"><g transform="matrix(1, 0, 0, 1, 0, 0)"><g clip-path="url(#f956ec576d)"><g clip-path="url(#3a843ea0ff)"><g clip-path="url(#05ca7d61ca)"><rect x="-82.5" width="540" fill="#a40040" height="539.999987" y="-82.499998" fill-opacity="1"/></g></g></g></g></g><g clip-path="url(#88ddf19f1b)"><path fill="#ffffff" d="M 204.464844 12.792969 C 203.453125 13.128906 201.097656 14.324219 200 15.050781 C 194.53125 18.675781 188.734375 25.199219 184.03125 33.027344 C 180.796875 38.402344 178.203125 44.328125 176.019531 51.308594 C 175.628906 52.539062 175.269531 53.578125 175.214844 53.632812 C 175.164062 53.6875 174 53.742188 172.632812 53.753906 C 169.851562 53.785156 168.539062 53.9375 166.238281 54.523438 C 160.496094 55.988281 155.035156 59.59375 151.289062 64.402344 C 149.464844 66.738281 147.566406 70.136719 146.597656 72.742188 C 144.375 78.796875 144.101562 85.128906 145.851562 90.402344 C 146.347656 91.925781 147.566406 94.34375 148.464844 95.617188 C 150.355469 98.265625 153.285156 100.566406 156.46875 101.910156 C 161.808594 104.179688 167.757812 104.582031 177.570312 103.367188 L 178.160156 103.289062 L 178.929688 104.148438 C 181.457031 106.949219 183.628906 108.632812 186.550781 110.054688 C 189.90625 111.695312 192.867188 112.398438 196.808594 112.519531 C 201.914062 112.671875 206.558594 111.605469 211.628906 109.132812 C 217.6875 106.167969 223.265625 101.273438 227.335938 95.355469 C 227.78125 94.703125 228.097656 94.355469 228.335938 94.257812 C 228.988281 93.988281 234.808594 93.5 239.386719 93.3125 C 246.804688 93.03125 253.535156 93.703125 258.691406 95.246094 C 262.945312 96.527344 266.855469 98.535156 269.960938 101.03125 C 276.59375 106.375 280.742188 114.753906 280.730469 122.789062 C 280.71875 129.257812 278.1875 134.15625 273.117188 137.542969 C 269.332031 140.0625 264.292969 141.613281 257.496094 142.320312 C 255.660156 142.515625 247.152344 142.515625 245.011719 142.320312 C 235.199219 141.449219 226.035156 139.464844 213.910156 135.597656 C 209.164062 134.089844 204.386719 132.417969 193.117188 128.316406 C 181.449219 124.070312 175.53125 122.019531 169.179688 120.042969 C 147.335938 113.222656 129.878906 110.707031 114.953125 112.238281 C 103.464844 113.410156 93.640625 117.011719 85.695312 122.972656 C 78.171875 128.609375 72.484375 136.457031 69.367188 145.488281 C 66.359375 154.195312 65.859375 163.707031 67.964844 172.371094 C 71.601562 187.382812 82.4375 198.652344 98.308594 203.949219 C 112.660156 208.738281 130.707031 208.792969 151.972656 204.125 C 164.792969 201.300781 177.039062 197.457031 200.664062 188.816406 C 220.453125 181.574219 226.761719 179.363281 234.535156 176.929688 C 245.46875 173.5 255.5 171.1875 262.980469 170.371094 C 266.507812 169.980469 267.464844 169.9375 271.230469 169.925781 C 275.34375 169.925781 276.527344 170.003906 279.589844 170.480469 C 290.304688 172.121094 298.347656 177.65625 300.964844 185.167969 C 301.648438 187.125 301.835938 188.230469 301.835938 190.390625 C 301.835938 192.628906 301.671875 193.636719 300.976562 195.765625 C 299.230469 201.117188 295.246094 205.980469 288.414062 211.105469 C 285.34375 213.40625 281.902344 215.644531 274.378906 220.191406 C 265.203125 225.738281 261.089844 228.453125 256.300781 232.089844 C 252.632812 234.878906 249.996094 237.171875 246.792969 240.339844 C 245.597656 241.523438 244.554688 242.503906 244.480469 242.503906 C 244.414062 242.503906 244.046875 241.851562 243.664062 241.070312 C 239.289062 231.832031 232.601562 225.882812 224.785156 224.261719 C 223.191406 223.9375 222.074219 223.828125 220.128906 223.828125 C 216.503906 223.828125 213.117188 224.546875 209.292969 226.121094 C 203.3125 228.574219 196.90625 233.21875 191.652344 238.917969 C 190.761719 239.875 189.960938 240.65625 189.863281 240.65625 C 189.753906 240.65625 189.460938 240.332031 189.15625 239.863281 C 184.5 232.851562 177.539062 227.628906 170.34375 225.773438 C 167.464844 225.035156 164.011719 224.742188 161.253906 225.011719 C 155.914062 225.535156 150.789062 227.683594 146.21875 231.320312 C 142.539062 234.25 138.675781 238.941406 136.066406 243.621094 C 135.589844 244.5 135.449219 244.511719 134.984375 243.761719 C 134.058594 242.273438 131.933594 239.148438 131.0625 237.996094 C 119.492188 222.699219 104.964844 216.4375 91.449219 220.910156 C 85.957031 222.734375 81.535156 226.195312 79.453125 230.320312 C 78.28125 232.644531 78.03125 234.316406 78.476562 236.847656 C 78.605469 237.585938 78.691406 238.5625 78.691406 239.308594 C 78.691406 242.371094 79.5625 246.386719 81.089844 250.460938 C 82.578125 254.378906 84.480469 258.429688 88.289062 265.777344 C 94.433594 277.632812 97.367188 283.863281 99.949219 290.597656 C 103.957031 301.0625 106.960938 312.882812 108.917969 325.878906 C 109.21875 327.910156 109.425781 329.492188 110.121094 335.105469 C 110.664062 339.570312 110.902344 341.011719 111.382812 342.816406 C 112.902344 348.558594 116.082031 351.121094 122.835938 352.03125 C 125.496094 352.402344 126.871094 352.464844 133.410156 352.585938 C 147.359375 352.824219 151.484375 352.921875 153.65625 353.019531 C 167.84375 353.691406 180.179688 355.027344 201.042969 358.132812 C 217.882812 360.640625 222.039062 361.183594 227.585938 361.640625 C 238.140625 362.507812 245.804688 361.824219 252.339844 359.425781 C 254.121094 358.761719 257.289062 357.15625 258.84375 356.125 C 267.417969 350.394531 272.695312 340.949219 275.019531 327.128906 C 275.886719 322.003906 276.277344 317.398438 276.820312 306.011719 C 277.167969 298.617188 277.386719 295.058594 277.636719 291.953125 C 279.046875 275.125 282.140625 263.171875 289.207031 247.289062 C 290.597656 244.175781 290.859375 243.390625 290.804688 242.621094 C 290.738281 241.851562 290.304688 241.417969 289.609375 241.417969 C 287.960938 241.417969 286.808594 243.140625 284.128906 249.613281 C 280.121094 259.296875 277.058594 269.449219 275.367188 278.707031 C 273.976562 286.265625 273.421875 292.0625 272.585938 307.421875 C 272.035156 317.519531 271.511719 322.644531 270.460938 327.996094 C 267.355469 343.792969 259.742188 353.105469 247.347656 356.277344 C 243.632812 357.222656 240.246094 357.589844 235.1875 357.589844 C 228.097656 357.589844 223.992188 357.15625 204.570312 354.375 C 186.269531 351.75 177.539062 350.695312 167.0625 349.816406 C 157.445312 349.023438 151.070312 348.742188 138.292969 348.570312 C 133.960938 348.503906 129.445312 348.40625 128.25 348.351562 C 120.804688 347.960938 117.882812 346.898438 116.527344 344.074219 C 115.722656 342.402344 115.320312 340.15625 114.628906 333.476562 C 113.867188 326.214844 113.226562 321.527344 112.28125 316.347656 C 110.175781 304.816406 107.332031 294.730469 103.445312 285.003906 C 101.089844 279.121094 99.351562 275.386719 93.847656 264.378906 C 88.417969 253.542969 87.226562 250.960938 85.867188 247.019531 C 83.652344 240.613281 83.058594 234.621094 84.402344 232.328125 C 85.890625 229.789062 89.191406 227.347656 92.871094 226.078125 C 95.445312 225.1875 97.667969 224.859375 100.761719 224.945312 C 103.207031 225 104.476562 225.195312 106.667969 225.828125 C 114.300781 228.03125 121.964844 234.121094 128.273438 243 C 130 245.421875 132.289062 249.167969 132.59375 250.058594 C 132.757812 250.535156 132.777344 250.46875 131.691406 253.628906 C 130.066406 258.417969 129.121094 262.761719 128.554688 267.960938 C 128.304688 270.371094 128.304688 275.746094 128.554688 277.773438 C 129.304688 283.691406 131.128906 287.707031 133.820312 289.335938 C 137.023438 291.257812 140.574219 289.738281 142.667969 285.546875 C 143.472656 283.941406 144.101562 281.683594 144.4375 279.230469 C 144.675781 277.503906 144.710938 272.628906 144.492188 270.730469 C 143.765625 264.367188 142.09375 258.375 139.269531 251.992188 C 138.878906 251.121094 138.621094 250.371094 138.621094 250.144531 C 138.621094 249.136719 141.910156 243.585938 144.222656 240.710938 C 145.394531 239.257812 147.890625 236.726562 149.148438 235.726562 C 156.390625 229.964844 164.640625 228.789062 172.675781 232.371094 C 175.597656 233.675781 179.015625 236.140625 181.351562 238.625 C 183.5 240.917969 186.203125 244.640625 186.203125 245.3125 C 186.203125 245.488281 185.78125 246.238281 185.0625 247.332031 C 180.351562 254.464844 177.421875 262.042969 176.550781 269.316406 C 176.324219 271.183594 176.300781 274.84375 176.488281 276.375 C 177.226562 282.148438 179.460938 286.144531 182.828125 287.652344 C 183.71875 288.054688 184.457031 288.207031 185.539062 288.207031 C 189.058594 288.207031 192.347656 285.308594 194.453125 280.367188 C 198.417969 271.097656 197.742188 257.34375 192.804688 246.476562 C 192.621094 246.0625 192.46875 245.597656 192.46875 245.433594 C 192.46875 245.074219 192.859375 244.554688 194.441406 242.828125 C 201.335938 235.304688 209.121094 230.453125 216.40625 229.136719 C 218.175781 228.8125 221.441406 228.789062 222.972656 229.082031 C 230.042969 230.453125 235.828125 235.945312 239.574219 244.847656 C 240.269531 246.507812 240.417969 247.074219 240.269531 247.410156 C 240.203125 247.550781 239.617188 248.363281 238.976562 249.234375 C 231.855469 258.742188 227.640625 269.296875 227.640625 277.621094 C 227.640625 281.792969 228.554688 284.679688 230.464844 286.578125 C 231.660156 287.761719 233.046875 288.347656 234.699219 288.347656 C 240.613281 288.335938 246.066406 280.367188 247.714844 269.316406 C 248.648438 263.03125 248.300781 256.074219 246.738281 249.863281 C 246.28125 248.039062 246.269531 248.09375 247.28125 246.976562 C 248.3125 245.847656 251.285156 242.902344 252.71875 241.621094 C 256.269531 238.429688 260.578125 235.152344 265.476562 231.917969 C 268.496094 229.917969 270.382812 228.746094 276.875 224.859375 C 283.464844 220.910156 285.355469 219.734375 288.167969 217.859375 C 292.5625 214.90625 295.460938 212.582031 298.371094 209.660156 C 300.519531 207.523438 301.769531 206.035156 303.148438 203.960938 C 309.128906 195.015625 308.96875 184.972656 302.722656 176.765625 C 301.855469 175.625 299.933594 173.652344 298.640625 172.566406 C 296.199219 170.503906 292.335938 168.308594 288.980469 167.0625 C 280.988281 164.097656 271.273438 163.457031 259.558594 165.105469 C 247.152344 166.867188 233.492188 170.828125 208.75 179.859375 C 186.777344 187.882812 185.148438 188.460938 177.375 191.054688 C 171.046875 193.160156 168.59375 193.917969 163.675781 195.34375 C 151.953125 198.707031 142.148438 200.757812 133.082031 201.738281 C 126.558594 202.429688 119.066406 202.519531 113.433594 201.953125 C 102.132812 200.800781 92.785156 197.339844 85.574219 191.617188 C 83.992188 190.359375 80.820312 187.167969 79.625 185.613281 C 75.230469 179.949219 72.710938 173.660156 71.777344 166.074219 C 71.515625 163.902344 71.515625 159.082031 71.789062 156.789062 C 73.296875 143.851562 79.875 132.832031 90.308594 125.808594 C 103.8125 116.710938 122.257812 114.625 146.25 119.5 C 158.476562 121.972656 169.417969 125.253906 191.164062 132.929688 C 203.636719 137.335938 207.992188 138.8125 213.472656 140.496094 C 224.863281 143.992188 235.011719 146.042969 244.359375 146.75 C 248.582031 147.0625 254.554688 147 258.3125 146.585938 C 272.132812 145.078125 280.785156 139.539062 283.886719 130.226562 C 284.8125 127.46875 285.125 125.144531 285.039062 121.691406 C 284.953125 118.273438 284.5625 116.015625 283.445312 112.660156 C 281.164062 105.765625 276.929688 99.925781 271.109375 95.605469 C 265.835938 91.683594 258.898438 89.167969 250.984375 88.296875 C 246.085938 87.753906 240.453125 87.753906 233.6875 88.296875 C 232.453125 88.394531 231.398438 88.449219 231.355469 88.40625 C 231.320312 88.363281 231.398438 88.027344 231.539062 87.65625 C 232.972656 83.890625 233.730469 80.808594 234.058594 77.429688 C 234.222656 75.78125 234.125 71.851562 233.882812 70.375 C 232.601562 62.308594 228.476562 55.816406 221.941406 51.550781 C 215.949219 47.628906 208.371094 46.292969 201.042969 47.867188 C 197.320312 48.660156 193.054688 50.714844 190.199219 53.101562 C 189.144531 53.980469 187.460938 55.730469 186.820312 56.609375 C 186.550781 56.988281 186.246094 57.3125 186.148438 57.347656 C 186.03125 57.390625 185.648438 57.238281 185.195312 56.964844 C 184.324219 56.457031 183 55.835938 181.859375 55.402344 C 181.425781 55.242188 181.023438 55.023438 180.96875 54.925781 C 180.71875 54.46875 183.085938 47.652344 185.03125 43.289062 C 187.484375 37.75 189.894531 33.320312 193.019531 28.632812 C 196.539062 23.34375 199.566406 19.652344 203.734375 15.59375 C 206.058594 13.335938 206.4375 12.890625 206.308594 12.671875 C 206.199219 12.488281 205.148438 12.5625 204.464844 12.792969 Z M 210.042969 51.050781 C 218.773438 52.332031 225.960938 58.292969 228.707031 66.574219 C 229.550781 69.105469 229.921875 71.503906 229.921875 74.371094 C 229.921875 78.601562 229.042969 82.511719 227.140625 86.757812 C 226.449219 88.308594 226.078125 88.949219 225.808594 89.101562 C 225.6875 89.15625 224.753906 89.328125 223.722656 89.480469 C 216.15625 90.601562 208.359375 92.109375 193.933594 95.234375 C 187.558594 96.613281 181.761719 97.785156 181.308594 97.785156 C 180.882812 97.785156 180.675781 97.503906 180.027344 96.050781 C 178.625 92.878906 177.734375 89.273438 177.300781 84.945312 C 176.921875 81.121094 177.09375 74.816406 177.714844 69.941406 C 178.246094 65.738281 179.375 59.820312 179.710938 59.472656 C 179.839844 59.34375 179.9375 59.34375 180.382812 59.519531 C 181.1875 59.8125 183.640625 61.09375 183.847656 61.320312 C 184.019531 61.515625 184.011719 61.582031 183.695312 62.6875 C 182.011719 68.484375 183.597656 74.085938 187.453125 75.996094 L 188.375 76.453125 L 189.632812 76.453125 C 190.828125 76.453125 190.9375 76.433594 191.632812 76.105469 C 193.042969 75.433594 194.140625 73.980469 194.59375 72.164062 C 194.832031 71.222656 194.757812 68.863281 194.453125 67.769531 C 193.75 65.238281 192.109375 62.589844 189.925781 60.441406 C 189.535156 60.0625 189.210938 59.648438 189.210938 59.527344 C 189.210938 59.03125 191.402344 56.621094 192.957031 55.390625 C 196.289062 52.777344 200.316406 51.277344 205.167969 50.84375 C 206.070312 50.769531 208.871094 50.886719 210.042969 51.050781 Z M 173.773438 58.117188 C 174.085938 58.203125 174.078125 58.34375 173.6875 60.09375 C 172.273438 66.347656 171.492188 73.144531 171.492188 79.113281 C 171.480469 86.332031 172.566406 92.324219 174.78125 97.386719 C 175.261719 98.460938 175.28125 98.613281 175.019531 98.742188 C 174.792969 98.863281 171.480469 99.15625 169.398438 99.253906 C 166.867188 99.359375 163.371094 99.058594 161.253906 98.535156 C 157.988281 97.730469 155.6875 96.496094 153.65625 94.476562 C 151.484375 92.316406 150.179688 89.699219 149.5625 86.300781 C 149.300781 84.800781 149.238281 81.394531 149.464844 79.875 C 150.605469 71.980469 155.1875 64.902344 161.601562 61.125 C 164.25 59.570312 167.507812 58.488281 170.441406 58.171875 C 171.535156 58.0625 173.425781 58.03125 173.773438 58.117188 Z M 187.832031 64.695312 C 189.503906 66.695312 190.511719 69.09375 190.371094 70.765625 C 190.230469 72.492188 189.40625 72.847656 188.289062 71.699219 C 187.691406 71.078125 187.265625 70.277344 186.964844 69.210938 C 186.582031 67.855469 186.757812 64.132812 187.203125 64.132812 C 187.289062 64.132812 187.558594 64.390625 187.832031 64.695312 Z M 221.671875 95.277344 C 221.671875 95.464844 219.867188 97.40625 218.566406 98.632812 C 213.203125 103.679688 206.753906 106.839844 200.402344 107.566406 C 198.992188 107.71875 195.5625 107.644531 194.367188 107.417969 C 191.4375 106.863281 189.1875 105.972656 186.953125 104.484375 C 185.78125 103.703125 184.542969 102.628906 184.542969 102.402344 C 184.542969 102.226562 184.910156 102.117188 186.332031 101.859375 C 186.875 101.761719 190.589844 101 194.585938 100.175781 C 206.308594 97.742188 211.195312 96.796875 217.546875 95.722656 C 220.617188 95.203125 221.671875 95.09375 221.671875 95.277344 Z M 189.113281 250.9375 C 189.523438 251.894531 190.492188 254.921875 190.882812 256.453125 C 191.339844 258.289062 191.730469 260.382812 192 262.421875 C 192.28125 264.605469 192.28125 270.089844 192 272.085938 C 191.273438 277.199219 189.816406 280.878906 187.746094 282.875 C 186.898438 283.691406 186.226562 284.015625 185.410156 284.015625 C 184.605469 284.007812 184.0625 283.710938 183.28125 282.855469 C 181.601562 281.019531 180.742188 277.871094 180.742188 273.550781 C 180.742188 268.199219 182.230469 262.421875 185.140625 256.453125 C 186.570312 253.519531 188.40625 250.425781 188.722656 250.425781 C 188.820312 250.425781 188.980469 250.644531 189.113281 250.9375 Z M 242.179688 253.8125 C 242.308594 254.152344 242.699219 257.113281 242.839844 258.730469 C 243.003906 260.652344 242.972656 264.476562 242.785156 266.449219 C 242.253906 272.03125 240.757812 276.863281 238.53125 280.21875 C 236.804688 282.8125 234.882812 284.007812 233.785156 283.171875 C 232.386719 282.105469 231.886719 278.066406 232.636719 273.734375 C 233.582031 268.230469 236.347656 261.730469 240.269531 255.855469 C 241.386719 254.171875 241.84375 253.574219 241.984375 253.574219 C 242.039062 253.574219 242.125 253.683594 242.179688 253.8125 Z M 136.492188 258.417969 C 138.476562 263.660156 139.714844 269.414062 139.878906 274.300781 C 140.050781 279.011719 139.109375 283.222656 137.523438 284.863281 C 136.742188 285.6875 136.132812 285.535156 135.308594 284.300781 C 132.429688 279.976562 132.378906 268.882812 135.199219 259.027344 C 135.722656 257.203125 135.773438 257.082031 135.960938 257.277344 C 136.046875 257.363281 136.285156 257.875 136.492188 258.417969 Z M 136.492188 258.417969 " fill-opacity="1" fill-rule="nonzero"/></g></svg>