<svg xmlns="http://www.w3.org/2000/svg" xmlns:xlink="http://www.w3.org/1999/xlink" width="800" zoomAndPan="magnify" viewBox="0 0 600 225" height="300" preserveAspectRatio="xMidYMid meet" version="1.0"><defs><g/><clipPath id="d897b11089"><path d="M 311 79 L 476 79 L 476 165 L 311 165 Z M 311 79 " clip-rule="nonzero"/></clipPath><clipPath id="b67337b247"><path d="M 467.234375 -30.222656 L 596.136719 78.683594 L 437.375 266.59375 L 308.472656 157.6875 Z M 467.234375 -30.222656 " clip-rule="nonzero"/></clipPath><clipPath id="dcad32ced5"><path d="M 467.234375 -30.222656 L 596.136719 78.683594 L 437.375 266.59375 L 308.472656 157.6875 Z M 467.234375 -30.222656 " clip-rule="nonzero"/></clipPath><clipPath id="e73af717bf"><path d="M 471 21 L 567 21 L 567 130 L 471 130 Z M 471 21 " clip-rule="nonzero"/></clipPath><clipPath id="b75769bfb1"><path d="M 467.234375 -30.222656 L 596.136719 78.683594 L 437.375 266.59375 L 308.472656 157.6875 Z M 467.234375 -30.222656 " clip-rule="nonzero"/></clipPath><clipPath id="74064db3ad"><path d="M 467.234375 -30.222656 L 596.136719 78.683594 L 437.375 266.59375 L 308.472656 157.6875 Z M 467.234375 -30.222656 " clip-rule="nonzero"/></clipPath><clipPath id="19833c8f36"><path d="M 0.800781 92 L 47 92 L 47 149 L 0.800781 149 Z M 0.800781 92 " clip-rule="nonzero"/></clipPath><clipPath id="48ee664338"><rect x="0" width="281" y="0" height="171"/></clipPath></defs><g clip-path="url(#d897b11089)"><g clip-path="url(#b67337b247)"><g clip-path="url(#dcad32ced5)"><path fill="#a40040" d="M 316.203125 164.429688 C 315.886719 164.164062 315.78125 163.695312 315.996094 163.308594 C 316.121094 163.078125 316.230469 162.867188 316.332031 162.648438 C 315.269531 162.207031 314.046875 161.464844 313.136719 160.253906 C 311.980469 158.703125 311.597656 156.753906 311.996094 154.433594 C 312.1875 153.367188 312.8125 152.628906 313.714844 152.402344 C 314.230469 152.269531 314.792969 152.328125 315.355469 152.535156 C 318.402344 150.542969 321.1875 148.515625 324.0625 146.25 C 324.097656 144.347656 324.628906 142.875 325.644531 142.050781 C 326.359375 141.46875 327.613281 140.957031 329.613281 141.6875 C 332.882812 138.90625 336.492188 135.722656 340.816406 131.886719 C 345.128906 128.070312 350.015625 123.75 356.035156 118.523438 C 388.59375 90.28125 414.96875 74.304688 445.773438 81.847656 C 461.136719 85.609375 469.914062 90.523438 471.878906 96.453125 C 472.808594 99.289062 471.890625 101.808594 470.710938 103.234375 C 470.5 103.488281 470.113281 103.730469 469.558594 103.960938 C 469.605469 104.054688 469.636719 104.148438 469.671875 104.234375 C 469.683594 104.257812 469.691406 104.28125 469.691406 104.296875 C 470.464844 104.320312 471.179688 104.410156 471.816406 104.597656 C 473.726562 105.15625 474.949219 106.441406 475.367188 108.320312 C 477.519531 118.144531 470.15625 138.507812 450.738281 151.179688 C 432.253906 163.234375 405.941406 163.523438 380.492188 163.808594 C 378.066406 163.832031 375.644531 163.863281 373.265625 163.894531 C 372.050781 163.898438 343.761719 163.855469 333.636719 161.246094 C 333.257812 161.148438 332.890625 161.019531 332.53125 160.871094 C 329.539062 162.417969 322.832031 164.394531 318.519531 163.269531 C 318.429688 163.261719 318.261719 163.230469 318.046875 163.1875 C 317.898438 163.511719 317.738281 163.832031 317.5625 164.171875 C 317.328125 164.617188 316.777344 164.773438 316.332031 164.539062 C 316.292969 164.507812 316.242188 164.464844 316.203125 164.429688 Z M 313.847656 154.449219 C 313.816406 154.519531 313.785156 154.621094 313.765625 154.746094 C 313.457031 156.542969 313.71875 158.03125 314.5625 159.160156 C 315.214844 160.046875 316.128906 160.597656 316.953125 160.941406 C 317.78125 157.871094 316.574219 155.933594 316.101562 155.324219 C 315.882812 155.042969 315.652344 154.820312 315.425781 154.628906 C 315.332031 154.6875 315.238281 154.75 315.144531 154.808594 C 314.722656 155.078125 314.160156 154.953125 313.898438 154.535156 C 313.875 154.515625 313.867188 154.480469 313.847656 154.449219 Z M 316.992188 153.628906 C 317.183594 153.816406 317.363281 154.011719 317.527344 154.230469 C 318.136719 155.027344 319.746094 157.582031 318.679688 161.46875 C 318.761719 161.484375 318.808594 161.496094 318.816406 161.488281 C 318.855469 161.492188 318.898438 161.503906 318.945312 161.515625 C 322.390625 162.445312 327.65625 161.039062 330.609375 159.785156 C 327.410156 157.476562 325.230469 153.238281 324.421875 149.546875 C 324.34375 149.164062 324.265625 148.792969 324.214844 148.425781 C 321.839844 150.261719 319.5 151.960938 316.992188 153.628906 Z M 325.890625 147.101562 C 325.9375 147.738281 326.03125 148.433594 326.191406 149.164062 C 327.011719 152.90625 329.34375 157.0625 332.464844 158.824219 C 334.320312 157.46875 334.433594 154.679688 334.324219 153.097656 C 334.054688 149.265625 332.082031 145.207031 329.890625 143.8125 C 328.519531 144.976562 327.191406 146.070312 325.890625 147.101562 Z M 331.613281 142.847656 C 334.171875 145.007812 335.875 149.371094 336.132812 152.984375 C 336.324219 155.804688 335.707031 158.082031 334.355469 159.554688 C 344.46875 162.046875 372.984375 162.085938 373.273438 162.09375 C 375.644531 162.050781 378.058594 162.027344 380.492188 161.996094 C 405.683594 161.722656 431.734375 161.433594 449.773438 149.667969 C 468.511719 137.441406 475.660156 118.023438 473.625 108.71875 C 473.355469 107.472656 472.628906 106.71875 471.34375 106.34375 C 470.996094 106.246094 470.613281 106.171875 470.210938 106.136719 C 471.289062 112.671875 466.34375 121.636719 460.371094 127.683594 C 455.050781 133.058594 449.753906 135.457031 446.183594 134.113281 C 443.652344 133.15625 442.109375 131.503906 441.609375 129.199219 C 440.542969 124.347656 444.601562 117.53125 448.816406 113.253906 C 451.367188 110.664062 457.613281 107.089844 463.390625 105.34375 C 458.503906 106.003906 452.003906 106.332031 446.273438 106.195312 C 437.058594 105.984375 426.226562 103.632812 425.984375 97.710938 C 425.925781 96.394531 426.503906 95.117188 427.644531 94.03125 C 431.035156 90.789062 439.242188 89.117188 448.0625 89.878906 C 458.855469 90.8125 465.921875 97.292969 468.800781 102.386719 C 469.070312 102.28125 469.25 102.183594 469.347656 102.082031 C 469.644531 101.734375 471.085938 99.792969 470.175781 97.035156 C 468.964844 93.394531 463.683594 88.109375 445.359375 83.625 C 415.308594 76.257812 389.351562 92.050781 357.230469 119.90625 C 351.210938 125.121094 346.332031 129.449219 342.027344 133.257812 C 337.925781 136.890625 334.46875 139.945312 331.332031 142.621094 C 331.417969 142.683594 331.515625 142.765625 331.613281 142.847656 Z M 327.886719 143.136719 C 327.433594 143.117188 327.070312 143.214844 326.789062 143.449219 C 326.484375 143.691406 326.257812 144.097656 326.097656 144.617188 C 326.683594 144.136719 327.28125 143.640625 327.886719 143.136719 Z M 468.359375 106.132812 C 462.300781 106.636719 453.058594 111.496094 450.082031 114.523438 C 446.074219 118.59375 442.46875 124.804688 443.347656 128.804688 C 443.714844 130.492188 444.847656 131.675781 446.796875 132.414062 C 449.632812 133.488281 454.335938 131.183594 459.066406 126.410156 C 464.675781 120.726562 469.554688 112.003906 468.359375 106.132812 Z M 462.40625 97.582031 C 458.953125 94.664062 454.082031 92.191406 447.890625 91.664062 C 439.691406 90.957031 431.871094 92.46875 428.875 95.324219 C 428.105469 96.050781 427.742188 96.828125 427.769531 97.621094 C 427.929688 101.289062 435.71875 104.125 446.300781 104.367188 C 455.480469 104.578125 463.238281 103.714844 467 102.867188 C 465.972656 101.167969 464.4375 99.296875 462.40625 97.582031 Z M 462.40625 97.582031 " fill-opacity="1" fill-rule="nonzero"/></g></g></g><g clip-path="url(#e73af717bf)"><g clip-path="url(#b75769bfb1)"><g clip-path="url(#74064db3ad)"><path fill="#a40040" d="M 475.519531 107.992188 C 472.238281 105.21875 470.742188 102.160156 471.398438 98.386719 C 474.449219 80.921875 484.070312 38.828125 507.605469 25.320312 C 515.066406 21.035156 523.433594 20.667969 529.992188 24.359375 C 535.628906 27.519531 539.089844 33.226562 539.25 39.628906 C 539.3125 42.058594 538.722656 44.75 537.636719 47.550781 C 540.070312 47.320312 542.390625 47.445312 544.53125 47.988281 C 550.621094 49.527344 556.316406 54.898438 559.773438 62.355469 C 563.0625 69.449219 563.496094 76.8125 560.941406 82.0625 C 559.8125 84.367188 558.335938 86.414062 556.609375 88.226562 C 557.027344 88.441406 557.429688 88.671875 557.8125 88.910156 C 562.046875 91.527344 565.066406 96.417969 565.890625 102 C 566.933594 109.019531 564.566406 116.207031 559.226562 122.246094 C 546.445312 136.695312 522.339844 127.8125 502.960938 120.683594 L 501.679688 120.210938 C 489.6875 115.773438 480.523438 112.21875 475.519531 107.992188 Z M 531.730469 27.734375 C 530.929688 27.054688 530.054688 26.441406 529.105469 25.917969 C 523.109375 22.554688 515.414062 22.914062 508.503906 26.875 C 485.636719 40 476.1875 81.46875 473.183594 98.683594 C 471.835938 106.386719 481.5 110.832031 502.316406 118.480469 L 503.601562 118.957031 C 522.457031 125.894531 545.917969 134.539062 557.886719 121.015625 C 562.859375 115.390625 565.074219 108.714844 564.117188 102.242188 C 563.375 97.171875 560.664062 92.753906 556.875 90.414062 C 556.367188 90.097656 555.820312 89.804688 555.246094 89.527344 C 544.15625 99.65625 524.652344 101.75 515.636719 102.175781 C 508.074219 102.523438 503.78125 101.445312 502.835938 98.972656 C 502.15625 97.1875 503.34375 95.046875 506.367188 92.601562 C 512.6875 87.492188 540.148438 81.351562 554.871094 87.398438 C 556.667969 85.605469 558.179688 83.570312 559.316406 81.246094 C 561.640625 76.488281 561.207031 69.703125 558.132812 63.097656 C 554.953125 56.234375 549.5625 51.109375 544.082031 49.722656 C 541.878906 49.167969 539.429688 49.105469 536.832031 49.429688 C 531.335938 61.515625 517.625 75.335938 507.71875 81.429688 C 503.335938 84.128906 495.554688 88.214844 492.792969 85.355469 C 491.066406 83.574219 492.027344 79.902344 495.640625 74.453125 C 502.035156 64.792969 520.464844 50.296875 535.578125 47.796875 C 536.816406 44.863281 537.511719 42.097656 537.449219 39.652344 C 537.320312 34.976562 535.242188 30.699219 531.730469 27.734375 Z M 553.410156 88.769531 C 539.292969 83.566406 513.316406 89.316406 507.503906 94.007812 C 505.257812 95.828125 504.164062 97.398438 504.523438 98.324219 C 504.980469 99.53125 508.117188 100.710938 515.550781 100.363281 C 524.179688 99.984375 542.675781 98.03125 553.410156 88.769531 Z M 534.65625 49.792969 C 520.898438 52.585938 503.894531 65.265625 497.144531 75.460938 C 493.730469 80.621094 493.324219 83.308594 494.09375 84.097656 C 495.152344 85.203125 499.515625 84.351562 506.777344 79.894531 C 516.257812 74.054688 529.070312 61.066406 534.65625 49.792969 Z M 534.65625 49.792969 " fill-opacity="1" fill-rule="nonzero"/></g></g></g><g transform="matrix(1, 0, 0, 1, 40, 30)"><g clip-path="url(#48ee664338)"><g fill="#a40040" fill-opacity="1"><g transform="translate(12.111346, 67.203524)"><g><path d="M 47.28125 -17 C 48.125 -17 48.546875 -16.554688 48.546875 -15.671875 L 48.546875 -15.453125 C 48.453125 -15.316406 48.382812 -15.082031 48.34375 -14.75 C 47.726562 -12.363281 46.726562 -10.113281 45.34375 -8 C 43.96875 -5.894531 42.34375 -4.054688 40.46875 -2.484375 C 38.59375 -0.921875 36.492188 0.3125 34.171875 1.21875 C 31.859375 2.132812 29.4375 2.59375 26.90625 2.59375 C 24.65625 2.59375 22.617188 2.226562 20.796875 1.5 C 18.972656 0.78125 17.414062 -0.242188 16.125 -1.578125 C 14.832031 -2.910156 13.832031 -4.488281 13.125 -6.3125 C 12.425781 -8.144531 12.078125 -10.1875 12.078125 -12.4375 C 12.078125 -14.726562 12.460938 -16.941406 13.234375 -19.078125 C 14.015625 -21.210938 15.070312 -23.179688 16.40625 -24.984375 C 17.738281 -26.785156 19.328125 -28.351562 21.171875 -29.6875 C 23.023438 -31.019531 25.03125 -32.039062 27.1875 -32.75 C 22.882812 -34.519531 20.734375 -37.445312 20.734375 -41.53125 C 20.734375 -42.1875 20.800781 -42.890625 20.9375 -43.640625 C 16.25 -46.585938 12.503906 -48.0625 9.703125 -48.0625 C 7.734375 -48.0625 6.054688 -47.519531 4.671875 -46.4375 C 3.285156 -45.363281 2.59375 -43.773438 2.59375 -41.671875 C 2.59375 -39.085938 3.976562 -37.796875 6.75 -37.796875 C 7.40625 -37.796875 8.109375 -37.867188 8.859375 -38.015625 C 9.140625 -38.054688 9.394531 -38.097656 9.625 -38.140625 C 9.863281 -38.191406 10.050781 -38.242188 10.1875 -38.296875 C 10.65625 -38.390625 10.914062 -38.4375 10.96875 -38.4375 C 11.519531 -38.4375 11.914062 -38.175781 12.15625 -37.65625 C 12.195312 -37.613281 12.21875 -37.472656 12.21875 -37.234375 C 12.21875 -36.628906 11.894531 -36.207031 11.25 -35.96875 C 11.25 -35.96875 11.0625 -35.921875 10.6875 -35.828125 C 10.5 -35.785156 10.332031 -35.738281 10.1875 -35.6875 C 10.050781 -35.644531 9.890625 -35.597656 9.703125 -35.546875 C 8.765625 -35.359375 7.78125 -35.265625 6.75 -35.265625 C 2.25 -35.265625 0 -37.375 0 -41.59375 C 0 -43 0.242188 -44.265625 0.734375 -45.390625 C 1.222656 -46.515625 1.898438 -47.460938 2.765625 -48.234375 C 3.640625 -49.003906 4.660156 -49.597656 5.828125 -50.015625 C 7.003906 -50.441406 8.269531 -50.65625 9.625 -50.65625 C 12.90625 -50.65625 16.984375 -49.132812 21.859375 -46.09375 C 22.515625 -47.351562 23.351562 -48.460938 24.375 -49.421875 C 25.40625 -50.390625 26.539062 -51.1875 27.78125 -51.8125 C 29.03125 -52.445312 30.34375 -52.925781 31.71875 -53.25 C 33.101562 -53.582031 34.5 -53.75 35.90625 -53.75 C 37.164062 -53.75 38.453125 -53.609375 39.765625 -53.328125 C 41.078125 -53.046875 42.285156 -52.585938 43.390625 -51.953125 C 44.492188 -51.328125 45.394531 -50.507812 46.09375 -49.5 C 46.789062 -48.488281 47.140625 -47.238281 47.140625 -45.75 C 47.140625 -44.4375 46.894531 -43.265625 46.40625 -42.234375 C 45.914062 -41.203125 45.25 -40.332031 44.40625 -39.625 C 43.5625 -38.925781 42.585938 -38.398438 41.484375 -38.046875 C 40.390625 -37.691406 39.207031 -37.515625 37.9375 -37.515625 C 33.351562 -37.515625 28.484375 -39.0625 23.328125 -42.15625 C 23.285156 -42.019531 23.265625 -41.765625 23.265625 -41.390625 C 23.265625 -39.890625 23.660156 -38.65625 24.453125 -37.6875 C 25.242188 -36.726562 26.238281 -35.96875 27.4375 -35.40625 C 28.632812 -34.851562 29.921875 -34.46875 31.296875 -34.25 C 32.679688 -34.039062 33.957031 -33.9375 35.125 -33.9375 C 35.96875 -33.9375 36.390625 -33.515625 36.390625 -32.671875 C 36.390625 -31.785156 35.96875 -31.34375 35.125 -31.34375 C 32.457031 -31.34375 29.878906 -30.894531 27.390625 -30 C 24.910156 -29.113281 22.734375 -27.835938 20.859375 -26.171875 C 18.992188 -24.503906 17.5 -22.523438 16.375 -20.234375 C 15.25 -17.941406 14.6875 -15.390625 14.6875 -12.578125 C 14.6875 -8.785156 15.726562 -5.738281 17.8125 -3.4375 C 19.894531 -1.144531 22.90625 0 26.84375 0 C 29.1875 0 31.382812 -0.421875 33.4375 -1.265625 C 35.5 -2.109375 37.375 -3.253906 39.0625 -4.703125 C 40.75 -6.160156 42.191406 -7.859375 43.390625 -9.796875 C 44.585938 -11.742188 45.46875 -13.816406 46.03125 -16.015625 C 46.257812 -16.671875 46.675781 -17 47.28125 -17 Z M 36.25 -51.21875 C 35.132812 -51.21875 33.96875 -51.078125 32.75 -50.796875 C 31.53125 -50.515625 30.367188 -50.101562 29.265625 -49.5625 C 28.160156 -49.03125 27.148438 -48.351562 26.234375 -47.53125 C 25.328125 -46.71875 24.613281 -45.769531 24.09375 -44.6875 C 29.113281 -41.59375 33.726562 -40.046875 37.9375 -40.046875 C 39.625 -40.046875 41.144531 -40.503906 42.5 -41.421875 C 43.863281 -42.335938 44.546875 -43.734375 44.546875 -45.609375 C 44.546875 -46.679688 44.273438 -47.578125 43.734375 -48.296875 C 43.203125 -49.023438 42.523438 -49.597656 41.703125 -50.015625 C 40.878906 -50.441406 39.988281 -50.75 39.03125 -50.9375 C 38.070312 -51.125 37.144531 -51.21875 36.25 -51.21875 Z M 36.25 -51.21875 "/></g></g></g><g fill="#a40040" fill-opacity="1"><g transform="translate(59.39352, 67.203524)"><g><path d="M 56.359375 -16.9375 C 57.203125 -16.75 57.503906 -16.207031 57.265625 -15.3125 C 56.796875 -13.625 56.007812 -11.738281 54.90625 -9.65625 C 53.8125 -7.570312 52.5 -5.628906 50.96875 -3.828125 C 49.445312 -2.023438 47.773438 -0.503906 45.953125 0.734375 C 44.128906 1.972656 42.234375 2.59375 40.265625 2.59375 C 38.390625 2.59375 37.03125 1.984375 36.1875 0.765625 C 35.25 -0.585938 35.0625 -2.671875 35.625 -5.484375 C 35.8125 -6.367188 36.113281 -7.550781 36.53125 -9.03125 C 36.957031 -10.507812 37.546875 -12.320312 38.296875 -14.46875 L 39.84375 -19.046875 C 40.070312 -19.929688 40.289062 -20.738281 40.5 -21.46875 C 40.71875 -22.195312 40.894531 -22.863281 41.03125 -23.46875 C 41.738281 -26.65625 41.644531 -28.832031 40.75 -30 C 40.144531 -30.894531 38.878906 -31.34375 36.953125 -31.34375 C 34.847656 -31.34375 32.960938 -30.847656 31.296875 -29.859375 C 29.640625 -28.878906 28.175781 -27.613281 26.90625 -26.0625 C 25.644531 -24.519531 24.554688 -22.820312 23.640625 -20.96875 C 22.734375 -19.125 22 -17.3125 21.4375 -15.53125 L 21.359375 -15.390625 L 21.359375 -15.3125 L 16.796875 1.609375 C 16.648438 2.222656 16.132812 2.53125 15.25 2.53125 C 14.445312 2.25 14.140625 1.734375 14.328125 0.984375 L 18.828125 -16.015625 C 20.890625 -23.515625 21.195312 -28.15625 19.75 -29.9375 C 18.945312 -30.875 17.632812 -31.34375 15.8125 -31.34375 C 13.84375 -31.34375 12.082031 -30.8125 10.53125 -29.75 C 8.988281 -28.695312 7.628906 -27.382812 6.453125 -25.8125 C 5.285156 -24.25 4.289062 -22.550781 3.46875 -20.71875 C 2.65625 -18.894531 1.988281 -17.1875 1.46875 -15.59375 L 1.40625 -15.453125 L 1.40625 -15.390625 L -3.15625 1.609375 C -3.300781 2.222656 -3.816406 2.53125 -4.703125 2.53125 C -5.503906 2.25 -5.8125 1.734375 -5.625 0.984375 L 3.4375 -32.953125 C 3.675781 -33.609375 4.097656 -33.9375 4.703125 -33.9375 L 4.84375 -33.9375 L 5.0625 -33.875 C 5.8125 -33.6875 6.09375 -33.171875 5.90625 -32.328125 L 4.703125 -27.828125 C 7.941406 -31.898438 11.644531 -33.9375 15.8125 -33.9375 C 18.53125 -33.9375 20.519531 -33.117188 21.78125 -31.484375 C 22.851562 -30.171875 23.347656 -28.203125 23.265625 -25.578125 C 27.003906 -31.148438 31.566406 -33.9375 36.953125 -33.9375 C 39.671875 -33.9375 41.640625 -33.117188 42.859375 -31.484375 C 44.078125 -29.796875 44.359375 -27.21875 43.703125 -23.75 C 43.421875 -22.25 43 -20.585938 42.4375 -18.765625 L 40.75 -13.625 C 40.144531 -11.945312 39.640625 -10.472656 39.234375 -9.203125 C 38.835938 -7.941406 38.546875 -6.863281 38.359375 -5.96875 C 37.703125 -3.25 37.679688 -1.492188 38.296875 -0.703125 L 38.4375 -0.5625 C 38.570312 -0.414062 38.6875 -0.320312 38.78125 -0.28125 C 39.113281 -0.09375 39.609375 0 40.265625 0 C 41.898438 0 43.5 -0.570312 45.0625 -1.71875 C 46.632812 -2.863281 48.078125 -4.269531 49.390625 -5.9375 C 50.703125 -7.601562 51.835938 -9.347656 52.796875 -11.171875 C 53.765625 -12.992188 54.4375 -14.609375 54.8125 -16.015625 C 54.945312 -16.628906 55.460938 -16.9375 56.359375 -16.9375 Z M 56.359375 -16.9375 "/></g></g></g><g fill="#a40040" fill-opacity="1"><g transform="translate(115.387413, 67.203524)"><g><path d="M 56.359375 -16.9375 C 57.203125 -16.75 57.503906 -16.207031 57.265625 -15.3125 C 56.796875 -13.625 56.007812 -11.738281 54.90625 -9.65625 C 53.8125 -7.570312 52.5 -5.628906 50.96875 -3.828125 C 49.445312 -2.023438 47.773438 -0.503906 45.953125 0.734375 C 44.128906 1.972656 42.234375 2.59375 40.265625 2.59375 C 38.390625 2.59375 37.03125 1.984375 36.1875 0.765625 C 35.25 -0.585938 35.0625 -2.671875 35.625 -5.484375 C 35.8125 -6.367188 36.113281 -7.550781 36.53125 -9.03125 C 36.957031 -10.507812 37.546875 -12.320312 38.296875 -14.46875 L 39.84375 -19.046875 C 40.070312 -19.929688 40.289062 -20.738281 40.5 -21.46875 C 40.71875 -22.195312 40.894531 -22.863281 41.03125 -23.46875 C 41.738281 -26.65625 41.644531 -28.832031 40.75 -30 C 40.144531 -30.894531 38.878906 -31.34375 36.953125 -31.34375 C 34.847656 -31.34375 32.960938 -30.847656 31.296875 -29.859375 C 29.640625 -28.878906 28.175781 -27.613281 26.90625 -26.0625 C 25.644531 -24.519531 24.554688 -22.820312 23.640625 -20.96875 C 22.734375 -19.125 22 -17.3125 21.4375 -15.53125 L 21.359375 -15.390625 L 21.359375 -15.3125 L 16.796875 1.609375 C 16.648438 2.222656 16.132812 2.53125 15.25 2.53125 C 14.445312 2.25 14.140625 1.734375 14.328125 0.984375 L 18.828125 -16.015625 C 20.890625 -23.515625 21.195312 -28.15625 19.75 -29.9375 C 18.945312 -30.875 17.632812 -31.34375 15.8125 -31.34375 C 13.84375 -31.34375 12.082031 -30.8125 10.53125 -29.75 C 8.988281 -28.695312 7.628906 -27.382812 6.453125 -25.8125 C 5.285156 -24.25 4.289062 -22.550781 3.46875 -20.71875 C 2.65625 -18.894531 1.988281 -17.1875 1.46875 -15.59375 L 1.40625 -15.453125 L 1.40625 -15.390625 L -3.15625 1.609375 C -3.300781 2.222656 -3.816406 2.53125 -4.703125 2.53125 C -5.503906 2.25 -5.8125 1.734375 -5.625 0.984375 L 3.4375 -32.953125 C 3.675781 -33.609375 4.097656 -33.9375 4.703125 -33.9375 L 4.84375 -33.9375 L 5.0625 -33.875 C 5.8125 -33.6875 6.09375 -33.171875 5.90625 -32.328125 L 4.703125 -27.828125 C 7.941406 -31.898438 11.644531 -33.9375 15.8125 -33.9375 C 18.53125 -33.9375 20.519531 -33.117188 21.78125 -31.484375 C 22.851562 -30.171875 23.347656 -28.203125 23.265625 -25.578125 C 27.003906 -31.148438 31.566406 -33.9375 36.953125 -33.9375 C 39.671875 -33.9375 41.640625 -33.117188 42.859375 -31.484375 C 44.078125 -29.796875 44.359375 -27.21875 43.703125 -23.75 C 43.421875 -22.25 43 -20.585938 42.4375 -18.765625 L 40.75 -13.625 C 40.144531 -11.945312 39.640625 -10.472656 39.234375 -9.203125 C 38.835938 -7.941406 38.546875 -6.863281 38.359375 -5.96875 C 37.703125 -3.25 37.679688 -1.492188 38.296875 -0.703125 L 38.4375 -0.5625 C 38.570312 -0.414062 38.6875 -0.320312 38.78125 -0.28125 C 39.113281 -0.09375 39.609375 0 40.265625 0 C 41.898438 0 43.5 -0.570312 45.0625 -1.71875 C 46.632812 -2.863281 48.078125 -4.269531 49.390625 -5.9375 C 50.703125 -7.601562 51.835938 -9.347656 52.796875 -11.171875 C 53.765625 -12.992188 54.4375 -14.609375 54.8125 -16.015625 C 54.945312 -16.628906 55.460938 -16.9375 56.359375 -16.9375 Z M 56.359375 -16.9375 "/></g></g></g><g fill="#a40040" fill-opacity="1"><g transform="translate(171.381307, 67.203524)"><g><path d="M 41.8125 -16.9375 C 42.414062 -16.789062 42.71875 -16.390625 42.71875 -15.734375 L 42.71875 -15.53125 L 42.65625 -15.3125 C 42.1875 -13.625 41.503906 -11.738281 40.609375 -9.65625 C 39.722656 -7.570312 38.632812 -5.628906 37.34375 -3.828125 C 36.050781 -2.023438 34.5625 -0.503906 32.875 0.734375 C 31.195312 1.972656 29.300781 2.59375 27.1875 2.59375 C 26.113281 2.59375 25.191406 2.394531 24.421875 2 C 23.648438 1.601562 23.003906 1.066406 22.484375 0.390625 C 21.972656 -0.285156 21.585938 -1.066406 21.328125 -1.953125 C 21.066406 -2.847656 20.914062 -3.789062 20.875 -4.78125 C 17.59375 0.132812 13.539062 2.59375 8.71875 2.59375 C 6.882812 2.59375 5.285156 2.253906 3.921875 1.578125 C 2.566406 0.898438 1.445312 0 0.5625 -1.125 C -0.320312 -2.25 -0.972656 -3.570312 -1.390625 -5.09375 C -1.816406 -6.613281 -2.03125 -8.21875 -2.03125 -9.90625 C -2.03125 -12.53125 -1.570312 -15.257812 -0.65625 -18.09375 C 0.25 -20.925781 1.53125 -23.515625 3.1875 -25.859375 C 4.851562 -28.203125 6.867188 -30.132812 9.234375 -31.65625 C 11.597656 -33.175781 14.257812 -33.9375 17.21875 -33.9375 C 22.457031 -33.9375 25.078125 -31.453125 25.078125 -26.484375 C 25.078125 -25.503906 24.957031 -24.472656 24.71875 -23.390625 C 24.488281 -22.316406 24.164062 -21.273438 23.75 -20.265625 C 23.332031 -19.265625 22.816406 -18.316406 22.203125 -17.421875 C 21.597656 -16.535156 20.941406 -15.738281 20.234375 -15.03125 C 19.765625 -14.613281 19.390625 -14.40625 19.109375 -14.40625 C 18.734375 -14.40625 18.40625 -14.546875 18.125 -14.828125 C 17.894531 -15.203125 17.78125 -15.503906 17.78125 -15.734375 C 17.78125 -16.066406 18.015625 -16.441406 18.484375 -16.859375 C 19.046875 -17.378906 19.570312 -18.015625 20.0625 -18.765625 C 20.550781 -19.515625 20.992188 -20.3125 21.390625 -21.15625 C 21.796875 -22 22.101562 -22.863281 22.3125 -23.75 C 22.519531 -24.632812 22.625 -25.476562 22.625 -26.28125 C 22.625 -29.65625 20.773438 -31.34375 17.078125 -31.34375 C 14.546875 -31.34375 12.269531 -30.640625 10.25 -29.234375 C 8.238281 -27.828125 6.503906 -26.046875 5.046875 -23.890625 C 3.597656 -21.734375 2.488281 -19.390625 1.71875 -16.859375 C 0.945312 -14.328125 0.5625 -11.960938 0.5625 -9.765625 C 0.5625 -8.453125 0.722656 -7.195312 1.046875 -6 C 1.378906 -4.8125 1.875 -3.769531 2.53125 -2.875 C 3.1875 -1.988281 4.039062 -1.285156 5.09375 -0.765625 C 6.144531 -0.253906 7.398438 0 8.859375 0 C 10.773438 0 12.421875 -0.40625 13.796875 -1.21875 C 15.179688 -2.039062 16.378906 -3.097656 17.390625 -4.390625 C 18.398438 -5.679688 19.289062 -7.109375 20.0625 -8.671875 C 20.832031 -10.242188 21.523438 -11.78125 22.140625 -13.28125 L 23.125 -15.8125 C 23.351562 -16.601562 23.796875 -17 24.453125 -17 C 25.242188 -17 25.640625 -16.554688 25.640625 -15.671875 C 25.640625 -15.203125 25.265625 -13.609375 24.515625 -10.890625 C 24.140625 -9.535156 23.859375 -8.457031 23.671875 -7.65625 C 23.578125 -7 23.492188 -6.410156 23.421875 -5.890625 C 23.359375 -5.378906 23.328125 -4.890625 23.328125 -4.421875 C 23.328125 -1.472656 24.566406 0 27.046875 0 C 28.828125 0 30.429688 -0.570312 31.859375 -1.71875 C 33.296875 -2.863281 34.5625 -4.253906 35.65625 -5.890625 C 36.757812 -7.535156 37.695312 -9.28125 38.46875 -11.125 C 39.238281 -12.976562 39.8125 -14.609375 40.1875 -16.015625 C 40.425781 -16.671875 40.847656 -17 41.453125 -17 L 41.59375 -17 Z M 41.8125 -16.9375 "/></g></g></g><g fill="#a40040" fill-opacity="1"><g transform="translate(212.69173, 67.203524)"><g><path d="M 2.53125 -53.75 C 3.976562 -53.75 4.703125 -53 4.703125 -51.5 C 4.703125 -51.082031 4.617188 -50.460938 4.453125 -49.640625 C 4.296875 -48.816406 4.0625 -48.007812 3.75 -47.21875 C 3.445312 -46.425781 3.082031 -45.722656 2.65625 -45.109375 C 2.238281 -44.503906 1.773438 -44.203125 1.265625 -44.203125 C 0.421875 -44.203125 0 -44.644531 0 -45.53125 C 0 -45.90625 0.253906 -46.5625 0.765625 -47.5 L 1.328125 -48.484375 C 1.515625 -48.804688 1.65625 -49.132812 1.75 -49.46875 C 0.625 -49.695312 0.0625 -50.351562 0.0625 -51.4375 C 0.0625 -52.039062 0.273438 -52.578125 0.703125 -53.046875 C 1.171875 -53.515625 1.78125 -53.75 2.53125 -53.75 Z M 2.53125 -53.75 "/></g></g></g><g fill="#a40040" fill-opacity="1"><g transform="translate(217.398877, 67.203524)"><g><path d="M 25.359375 -16.9375 C 26.203125 -16.695312 26.507812 -16.15625 26.28125 -15.3125 C 25.570312 -12.789062 24.515625 -10.460938 23.109375 -8.328125 C 21.710938 -6.191406 20.03125 -4.335938 18.0625 -2.765625 C 16.09375 -1.203125 13.910156 0.046875 11.515625 0.984375 C 9.128906 1.921875 6.625 2.4375 4 2.53125 C 3.863281 2.570312 3.5625 2.59375 3.09375 2.59375 C -0.0390625 2.59375 -2.898438 1.257812 -5.484375 -1.40625 C -7.773438 -3.84375 -8.921875 -6.09375 -8.921875 -8.15625 C -8.921875 -9 -8.5 -9.421875 -7.65625 -9.421875 C -6.769531 -9.421875 -6.328125 -9 -6.328125 -8.15625 C -6.328125 -6.789062 -5.410156 -5.148438 -3.578125 -3.234375 C -1.566406 -1.078125 0.65625 0 3.09375 0 L 3.9375 0 C 7.3125 -0.226562 9.945312 -1.375 11.84375 -3.4375 C 13.738281 -5.5 14.6875 -8.21875 14.6875 -11.59375 C 14.6875 -12.945312 14.3125 -14.195312 13.5625 -15.34375 C 12.8125 -16.5 11.882812 -17.546875 10.78125 -18.484375 C 9.6875 -19.421875 8.503906 -20.273438 7.234375 -21.046875 C 5.972656 -21.816406 4.800781 -22.507812 3.71875 -23.125 L 2.390625 -18.6875 C 2.148438 -18.03125 1.945312 -17.429688 1.78125 -16.890625 C 1.625 -16.359375 1.5 -15.832031 1.40625 -15.3125 C 1.21875 -14.707031 0.796875 -14.40625 0.140625 -14.40625 L 0 -14.40625 L -0.203125 -14.46875 C -1.003906 -14.613281 -1.3125 -15.128906 -1.125 -16.015625 C -0.789062 -17.285156 -0.4375 -18.4375 -0.0625 -19.46875 L 0.625 -21.859375 C 0.8125 -22.367188 0.960938 -22.832031 1.078125 -23.25 C 1.203125 -23.675781 1.3125 -24.050781 1.40625 -24.375 C -3.5625 -27.09375 -6.046875 -29.671875 -6.046875 -32.109375 C -6.046875 -32.859375 -5.953125 -33.617188 -5.765625 -34.390625 C -5.578125 -35.160156 -5.296875 -35.863281 -4.921875 -36.5 C -4.546875 -37.132812 -4.039062 -37.648438 -3.40625 -38.046875 C -2.769531 -38.441406 -2.03125 -38.640625 -1.1875 -38.640625 C 1.007812 -38.640625 2.691406 -37.914062 3.859375 -36.46875 C 5.359375 -34.3125 5.523438 -30.703125 4.359375 -25.640625 L 6.671875 -24.375 L 8.921875 -22.984375 C 9.765625 -22.460938 10.535156 -21.941406 11.234375 -21.421875 C 11.941406 -20.910156 12.550781 -20.398438 13.0625 -19.890625 C 15.875 -17.359375 17.28125 -14.59375 17.28125 -11.59375 C 17.28125 -8.738281 16.601562 -6.160156 15.25 -3.859375 C 17.21875 -5.265625 18.972656 -7.054688 20.515625 -9.234375 C 22.066406 -11.410156 23.144531 -13.671875 23.75 -16.015625 C 23.976562 -16.671875 24.398438 -17 25.015625 -17 L 25.15625 -17 Z M 2.03125 -26.984375 C 2.78125 -30.921875 2.6875 -33.566406 1.75 -34.921875 C 1.1875 -35.671875 0.207031 -36.046875 -1.1875 -36.046875 C -1.988281 -36.046875 -2.578125 -35.578125 -2.953125 -34.640625 C -3.273438 -33.941406 -3.4375 -33.097656 -3.4375 -32.109375 C -3.4375 -30.890625 -1.613281 -29.179688 2.03125 -26.984375 Z M 2.03125 -26.984375 "/></g></g></g><g fill="#a40040" fill-opacity="1"><g transform="translate(242.274379, 67.203524)"><g/></g></g><g clip-path="url(#19833c8f36)"><g fill="#a40040" fill-opacity="1"><g transform="translate(0.977465, 146.324186)"><g><path d="M 32.25 -53.96875 C 34.03125 -53.96875 35.726562 -53.71875 37.34375 -53.21875 C 38.957031 -52.726562 40.375 -51.988281 41.59375 -51 C 42.8125 -50.019531 43.785156 -48.804688 44.515625 -47.359375 C 45.242188 -45.910156 45.609375 -44.222656 45.609375 -42.296875 C 45.609375 -41.453125 45.160156 -41.03125 44.265625 -41.03125 C 43.421875 -41.03125 43 -41.453125 43 -42.296875 C 43 -43.796875 42.691406 -45.117188 42.078125 -46.265625 C 41.472656 -47.410156 40.675781 -48.367188 39.6875 -49.140625 C 38.707031 -49.921875 37.570312 -50.5 36.28125 -50.875 C 35 -51.25 33.65625 -51.4375 32.25 -51.4375 C 23.769531 -51.4375 16.554688 -47.40625 10.609375 -39.34375 C 5.265625 -32.132812 2.59375 -24.523438 2.59375 -16.515625 C 2.59375 -14.210938 2.882812 -12.054688 3.46875 -10.046875 C 4.0625 -8.035156 4.953125 -6.289062 6.140625 -4.8125 C 7.335938 -3.332031 8.847656 -2.160156 10.671875 -1.296875 C 12.503906 -0.429688 14.660156 0 17.140625 0 C 22.429688 0 27.1875 -1.96875 31.40625 -5.90625 C 34.820312 -9.09375 36.976562 -12.460938 37.875 -16.015625 C 38.0625 -16.628906 38.503906 -16.9375 39.203125 -16.9375 L 39.34375 -16.9375 L 39.5625 -16.859375 C 40.125 -16.722656 40.40625 -16.300781 40.40625 -15.59375 L 40.40625 -15.3125 C 39.695312 -12.832031 38.582031 -10.503906 37.0625 -8.328125 C 35.539062 -6.148438 33.738281 -4.25 31.65625 -2.625 C 29.570312 -1.007812 27.285156 0.257812 24.796875 1.1875 C 22.316406 2.125 19.789062 2.59375 17.21875 2.59375 C 14.3125 2.59375 11.78125 2.078125 9.625 1.046875 C 7.46875 0.0234375 5.675781 -1.363281 4.25 -3.125 C 2.820312 -4.882812 1.753906 -6.957031 1.046875 -9.34375 C 0.347656 -11.726562 0 -14.257812 0 -16.9375 C 0 -25.882812 3.066406 -34.175781 9.203125 -41.8125 C 15.765625 -49.914062 23.445312 -53.96875 32.25 -53.96875 Z M 32.25 -53.96875 "/></g></g></g></g><g fill="#a40040" fill-opacity="1"><g transform="translate(40.109961, 146.324186)"><g><path d="M 39.703125 -16.9375 C 40.304688 -16.75 40.609375 -16.300781 40.609375 -15.59375 L 40.609375 -15.3125 C 40.191406 -13.71875 39.546875 -11.878906 38.671875 -9.796875 C 37.804688 -7.710938 36.753906 -5.753906 35.515625 -3.921875 C 34.273438 -2.097656 32.832031 -0.554688 31.1875 0.703125 C 29.550781 1.960938 27.726562 2.59375 25.71875 2.59375 C 24.59375 2.59375 23.664062 2.347656 22.9375 1.859375 C 22.21875 1.367188 21.671875 0.738281 21.296875 -0.03125 C 20.921875 -0.800781 20.660156 -1.664062 20.515625 -2.625 C 20.378906 -3.59375 20.3125 -4.519531 20.3125 -5.40625 C 16.789062 -0.0703125 12.570312 2.59375 7.65625 2.59375 C 5.925781 2.59375 4.425781 2.285156 3.15625 1.671875 C 1.894531 1.066406 0.863281 0.253906 0.0625 -0.765625 C -0.726562 -1.796875 -1.320312 -3.015625 -1.71875 -4.421875 C -2.113281 -5.828125 -2.3125 -7.328125 -2.3125 -8.921875 C -2.3125 -11.117188 -1.960938 -13.484375 -1.265625 -16.015625 L 3.234375 -32.953125 C 3.460938 -33.609375 3.882812 -33.9375 4.5 -33.9375 L 4.640625 -33.9375 L 4.84375 -33.875 C 5.457031 -33.726562 5.765625 -33.304688 5.765625 -32.609375 L 5.765625 -32.328125 L 1.1875 -15.3125 C 0.582031 -13.15625 0.28125 -11.023438 0.28125 -8.921875 C 0.28125 -2.972656 2.671875 0 7.453125 0 C 9.085938 0 10.570312 -0.375 11.90625 -1.125 C 13.238281 -1.875 14.457031 -2.859375 15.5625 -4.078125 C 16.664062 -5.296875 17.648438 -6.703125 18.515625 -8.296875 C 19.378906 -9.890625 20.148438 -11.503906 20.828125 -13.140625 C 21.515625 -14.773438 22.113281 -16.398438 22.625 -18.015625 C 23.132812 -19.640625 23.578125 -21.109375 23.953125 -22.421875 C 24.191406 -23.066406 24.425781 -23.847656 24.65625 -24.765625 C 24.894531 -25.679688 25.175781 -26.722656 25.5 -27.890625 L 26.90625 -32.953125 C 27.144531 -33.609375 27.546875 -33.9375 28.109375 -33.9375 L 28.25 -33.9375 L 28.453125 -33.875 C 29.109375 -33.726562 29.4375 -33.328125 29.4375 -32.671875 L 29.4375 -32.53125 C 29.4375 -32.34375 29.414062 -32.203125 29.375 -32.109375 C 29.28125 -31.921875 29.140625 -31.460938 28.953125 -30.734375 C 28.765625 -30.015625 28.503906 -29 28.171875 -27.6875 C 27.796875 -26.1875 27.421875 -24.722656 27.046875 -23.296875 C 26.671875 -21.867188 26.296875 -20.425781 25.921875 -18.96875 C 24.890625 -14.75 24.117188 -11.46875 23.609375 -9.125 C 23.097656 -6.789062 22.84375 -5.34375 22.84375 -4.78125 C 22.84375 -4.21875 22.875 -3.65625 22.9375 -3.09375 C 23.007812 -2.53125 23.148438 -2.023438 23.359375 -1.578125 C 23.566406 -1.128906 23.878906 -0.753906 24.296875 -0.453125 C 24.722656 -0.148438 25.265625 0 25.921875 0 C 27.515625 0 28.988281 -0.59375 30.34375 -1.78125 C 31.707031 -2.976562 32.90625 -4.421875 33.9375 -6.109375 C 34.96875 -7.796875 35.832031 -9.550781 36.53125 -11.375 C 37.238281 -13.207031 37.753906 -14.753906 38.078125 -16.015625 C 38.265625 -16.628906 38.710938 -16.9375 39.421875 -16.9375 Z M 39.703125 -16.9375 "/></g></g></g><g fill="#a40040" fill-opacity="1"><g transform="translate(79.312715, 146.324186)"><g><path d="M -6.671875 23.46875 C -7.609375 23.46875 -8.207031 23.054688 -8.46875 22.234375 C -8.726562 21.421875 -8.859375 20.640625 -8.859375 19.890625 C -8.859375 12.859375 -5.90625 2.617188 0 -10.828125 L 0.484375 -11.875 C 0.160156 -13.28125 -0.253906 -14.238281 -0.765625 -14.75 C -1.378906 -15.363281 -1.378906 -15.972656 -0.765625 -16.578125 C -0.535156 -16.816406 -0.234375 -16.9375 0.140625 -16.9375 C 0.515625 -16.9375 0.816406 -16.816406 1.046875 -16.578125 C 1.328125 -16.296875 1.65625 -15.851562 2.03125 -15.25 C 8.03125 -27.707031 13.816406 -33.9375 19.390625 -33.9375 C 21.265625 -33.9375 22.867188 -33.582031 24.203125 -32.875 C 25.535156 -32.175781 26.625 -31.226562 27.46875 -30.03125 C 28.3125 -28.84375 28.929688 -27.472656 29.328125 -25.921875 C 29.734375 -24.378906 29.9375 -22.765625 29.9375 -21.078125 C 29.9375 -15.128906 28.222656 -9.789062 24.796875 -5.0625 C 21.097656 0.0390625 16.648438 2.59375 11.453125 2.59375 C 9.347656 2.59375 7.425781 2.007812 5.6875 0.84375 C 5.03125 0.320312 4.914062 -0.257812 5.34375 -0.90625 C 5.570312 -1.28125 5.921875 -1.46875 6.390625 -1.46875 C 6.722656 -1.46875 6.984375 -1.398438 7.171875 -1.265625 C 8.390625 -0.421875 9.816406 0 11.453125 0 C 13.984375 0 16.234375 -0.6875 18.203125 -2.0625 C 20.171875 -3.445312 21.832031 -5.179688 23.1875 -7.265625 C 24.539062 -9.359375 25.582031 -11.632812 26.3125 -14.09375 C 27.039062 -16.550781 27.40625 -18.878906 27.40625 -21.078125 C 27.40625 -22.390625 27.273438 -23.664062 27.015625 -24.90625 C 26.753906 -26.144531 26.304688 -27.242188 25.671875 -28.203125 C 25.046875 -29.171875 24.21875 -29.945312 23.1875 -30.53125 C 22.15625 -31.113281 20.890625 -31.40625 19.390625 -31.40625 C 17.890625 -31.40625 16.378906 -30.75 14.859375 -29.4375 C 13.335938 -28.125 11.894531 -26.554688 10.53125 -24.734375 C 9.175781 -22.910156 7.957031 -21 6.875 -19 C 5.800781 -17.007812 4.9375 -15.335938 4.28125 -13.984375 C 4.09375 -13.609375 3.90625 -13.207031 3.71875 -12.78125 C 3.53125 -12.363281 3.320312 -11.945312 3.09375 -11.53125 C 3.75 -7.726562 3.675781 -2.898438 2.875 2.953125 C 2.78125 3.703125 2.613281 4.71875 2.375 6 C 2.144531 7.289062 1.851562 8.695312 1.5 10.21875 C 1.15625 11.738281 0.722656 13.285156 0.203125 14.859375 C -0.304688 16.429688 -0.898438 17.847656 -1.578125 19.109375 C -2.253906 20.378906 -3.015625 21.421875 -3.859375 22.234375 C -4.703125 23.054688 -5.640625 23.46875 -6.671875 23.46875 Z M -3.015625 16.09375 C -0.398438 9.769531 0.90625 2.273438 0.90625 -6.390625 C -0.257812 -3.441406 -1.3125 -0.550781 -2.25 2.28125 C -3.1875 5.113281 -4.003906 7.9375 -4.703125 10.75 C -6.015625 15.945312 -6.53125 19.296875 -6.25 20.796875 C -5.269531 20.378906 -4.191406 18.8125 -3.015625 16.09375 Z M -3.015625 16.09375 "/></g></g></g><g fill="#a40040" fill-opacity="1"><g transform="translate(113.527303, 146.324186)"><g><path d="M 32.46875 -16.9375 C 33.070312 -16.75 33.375 -16.300781 33.375 -15.59375 L 33.375 -15.3125 C 32.71875 -12.925781 31.628906 -10.65625 30.109375 -8.5 C 28.585938 -6.34375 26.785156 -4.429688 24.703125 -2.765625 C 22.617188 -1.109375 20.359375 0.195312 17.921875 1.15625 C 15.484375 2.113281 13 2.59375 10.46875 2.59375 C 8.550781 2.59375 6.816406 2.285156 5.265625 1.671875 C 3.722656 1.066406 2.425781 0.207031 1.375 -0.90625 C 0.320312 -2.03125 -0.484375 -3.378906 -1.046875 -4.953125 C -1.609375 -6.523438 -1.890625 -8.25 -1.890625 -10.125 C -1.890625 -12.789062 -1.351562 -15.539062 -0.28125 -18.375 C 0.789062 -21.207031 2.253906 -23.769531 4.109375 -26.0625 C 5.960938 -28.363281 8.148438 -30.25 10.671875 -31.71875 C 13.203125 -33.195312 15.898438 -33.9375 18.765625 -33.9375 C 21.054688 -33.9375 22.925781 -33.160156 24.375 -31.609375 C 25.832031 -30.066406 26.5625 -28.078125 26.5625 -25.640625 C 26.5625 -24.796875 26.113281 -24.375 25.21875 -24.375 C 24.375 -24.375 23.953125 -25.007812 23.953125 -26.28125 C 23.953125 -27.96875 23.351562 -29.234375 22.15625 -30.078125 C 20.96875 -30.921875 19.601562 -31.34375 18.0625 -31.34375 C 15.625 -31.34375 13.347656 -30.640625 11.234375 -29.234375 C 9.128906 -27.828125 7.289062 -26.066406 5.71875 -23.953125 C 4.15625 -21.847656 2.925781 -19.539062 2.03125 -17.03125 C 1.144531 -14.53125 0.703125 -12.179688 0.703125 -9.984375 C 0.703125 -6.929688 1.546875 -4.503906 3.234375 -2.703125 C 4.921875 -0.898438 7.3125 0 10.40625 0 C 12.601562 0 14.800781 -0.441406 17 -1.328125 C 19.207031 -2.222656 21.242188 -3.40625 23.109375 -4.875 C 24.984375 -6.351562 26.597656 -8.050781 27.953125 -9.96875 C 29.316406 -11.894531 30.28125 -13.910156 30.84375 -16.015625 C 31.082031 -16.671875 31.503906 -17 32.109375 -17 L 32.25 -17 Z M 32.46875 -16.9375 "/></g></g></g><g fill="#a40040" fill-opacity="1"><g transform="translate(145.493705, 146.324186)"><g><path d="M 41.8125 -16.9375 C 42.414062 -16.789062 42.71875 -16.390625 42.71875 -15.734375 L 42.71875 -15.53125 L 42.65625 -15.3125 C 42.1875 -13.625 41.503906 -11.738281 40.609375 -9.65625 C 39.722656 -7.570312 38.632812 -5.628906 37.34375 -3.828125 C 36.050781 -2.023438 34.5625 -0.503906 32.875 0.734375 C 31.195312 1.972656 29.300781 2.59375 27.1875 2.59375 C 26.113281 2.59375 25.191406 2.394531 24.421875 2 C 23.648438 1.601562 23.003906 1.066406 22.484375 0.390625 C 21.972656 -0.285156 21.585938 -1.066406 21.328125 -1.953125 C 21.066406 -2.847656 20.914062 -3.789062 20.875 -4.78125 C 17.59375 0.132812 13.539062 2.59375 8.71875 2.59375 C 6.882812 2.59375 5.285156 2.253906 3.921875 1.578125 C 2.566406 0.898438 1.445312 0 0.5625 -1.125 C -0.320312 -2.25 -0.972656 -3.570312 -1.390625 -5.09375 C -1.816406 -6.613281 -2.03125 -8.21875 -2.03125 -9.90625 C -2.03125 -12.53125 -1.570312 -15.257812 -0.65625 -18.09375 C 0.25 -20.925781 1.53125 -23.515625 3.1875 -25.859375 C 4.851562 -28.203125 6.867188 -30.132812 9.234375 -31.65625 C 11.597656 -33.175781 14.257812 -33.9375 17.21875 -33.9375 C 22.457031 -33.9375 25.078125 -31.453125 25.078125 -26.484375 C 25.078125 -25.503906 24.957031 -24.472656 24.71875 -23.390625 C 24.488281 -22.316406 24.164062 -21.273438 23.75 -20.265625 C 23.332031 -19.265625 22.816406 -18.316406 22.203125 -17.421875 C 21.597656 -16.535156 20.941406 -15.738281 20.234375 -15.03125 C 19.765625 -14.613281 19.390625 -14.40625 19.109375 -14.40625 C 18.734375 -14.40625 18.40625 -14.546875 18.125 -14.828125 C 17.894531 -15.203125 17.78125 -15.503906 17.78125 -15.734375 C 17.78125 -16.066406 18.015625 -16.441406 18.484375 -16.859375 C 19.046875 -17.378906 19.570312 -18.015625 20.0625 -18.765625 C 20.550781 -19.515625 20.992188 -20.3125 21.390625 -21.15625 C 21.796875 -22 22.101562 -22.863281 22.3125 -23.75 C 22.519531 -24.632812 22.625 -25.476562 22.625 -26.28125 C 22.625 -29.65625 20.773438 -31.34375 17.078125 -31.34375 C 14.546875 -31.34375 12.269531 -30.640625 10.25 -29.234375 C 8.238281 -27.828125 6.503906 -26.046875 5.046875 -23.890625 C 3.597656 -21.734375 2.488281 -19.390625 1.71875 -16.859375 C 0.945312 -14.328125 0.5625 -11.960938 0.5625 -9.765625 C 0.5625 -8.453125 0.722656 -7.195312 1.046875 -6 C 1.378906 -4.8125 1.875 -3.769531 2.53125 -2.875 C 3.1875 -1.988281 4.039062 -1.285156 5.09375 -0.765625 C 6.144531 -0.253906 7.398438 0 8.859375 0 C 10.773438 0 12.421875 -0.40625 13.796875 -1.21875 C 15.179688 -2.039062 16.378906 -3.097656 17.390625 -4.390625 C 18.398438 -5.679688 19.289062 -7.109375 20.0625 -8.671875 C 20.832031 -10.242188 21.523438 -11.78125 22.140625 -13.28125 L 23.125 -15.8125 C 23.351562 -16.601562 23.796875 -17 24.453125 -17 C 25.242188 -17 25.640625 -16.554688 25.640625 -15.671875 C 25.640625 -15.203125 25.265625 -13.609375 24.515625 -10.890625 C 24.140625 -9.535156 23.859375 -8.457031 23.671875 -7.65625 C 23.578125 -7 23.492188 -6.410156 23.421875 -5.890625 C 23.359375 -5.378906 23.328125 -4.890625 23.328125 -4.421875 C 23.328125 -1.472656 24.566406 0 27.046875 0 C 28.828125 0 30.429688 -0.570312 31.859375 -1.71875 C 33.296875 -2.863281 34.5625 -4.253906 35.65625 -5.890625 C 36.757812 -7.535156 37.695312 -9.28125 38.46875 -11.125 C 39.238281 -12.976562 39.8125 -14.609375 40.1875 -16.015625 C 40.425781 -16.671875 40.847656 -17 41.453125 -17 L 41.59375 -17 Z M 41.8125 -16.9375 "/></g></g></g><g fill="#a40040" fill-opacity="1"><g transform="translate(186.804129, 146.324186)"><g><path d="M 31.96875 -17 C 32.769531 -17 33.171875 -16.601562 33.171875 -15.8125 L 33.171875 -15.53125 C 33.117188 -15.382812 33.082031 -15.226562 33.0625 -15.0625 C 33.039062 -14.90625 32.984375 -14.734375 32.890625 -14.546875 C 32.367188 -12.765625 31.535156 -10.863281 30.390625 -8.84375 C 29.242188 -6.832031 27.875 -4.984375 26.28125 -3.296875 C 24.6875 -1.609375 22.925781 -0.207031 21 0.90625 C 19.082031 2.03125 17.117188 2.59375 15.109375 2.59375 C 13.984375 2.59375 13.046875 2.394531 12.296875 2 C 11.546875 1.601562 10.957031 1.078125 10.53125 0.421875 C 10.113281 -0.234375 9.800781 -0.992188 9.59375 -1.859375 C 9.382812 -2.722656 9.234375 -3.625 9.140625 -4.5625 L 9.0625 -6.46875 L 9.0625 -8.296875 C 9.0625 -9.460938 9.003906 -10.664062 8.890625 -11.90625 C 8.773438 -13.144531 8.503906 -14.28125 8.078125 -15.3125 C 7.660156 -16.34375 7.015625 -17.195312 6.140625 -17.875 C 5.273438 -18.5625 4.09375 -18.90625 2.59375 -18.90625 C 2.125 -17.78125 1.703125 -16.582031 1.328125 -15.3125 L -3.234375 1.609375 C -3.367188 2.222656 -3.882812 2.53125 -4.78125 2.53125 C -5.0625 2.53125 -5.304688 2.445312 -5.515625 2.28125 C -5.722656 2.113281 -5.828125 1.890625 -5.828125 1.609375 C -5.828125 1.566406 -5.78125 1.359375 -5.6875 0.984375 L 8.71875 -52.84375 C 8.8125 -53.125 8.984375 -53.34375 9.234375 -53.5 C 9.492188 -53.664062 9.765625 -53.75 10.046875 -53.75 C 10.378906 -53.75 10.660156 -53.65625 10.890625 -53.46875 C 11.128906 -53.238281 11.25 -52.957031 11.25 -52.625 C 11.25 -52.394531 11.175781 -52.019531 11.03125 -51.5 L 4.5625 -27.40625 C 9.4375 -34.007812 14.425781 -37.3125 19.53125 -37.3125 C 23 -37.3125 24.734375 -35.882812 24.734375 -33.03125 C 24.734375 -31.34375 24.144531 -29.757812 22.96875 -28.28125 C 21.800781 -26.800781 20.375 -25.476562 18.6875 -24.3125 C 17 -23.144531 15.207031 -22.160156 13.3125 -21.359375 C 11.414062 -20.566406 9.765625 -20.003906 8.359375 -19.671875 C 9.015625 -19.203125 9.539062 -18.613281 9.9375 -17.90625 C 10.34375 -17.207031 10.648438 -16.457031 10.859375 -15.65625 C 11.066406 -14.863281 11.21875 -14.046875 11.3125 -13.203125 C 11.40625 -12.359375 11.476562 -11.566406 11.53125 -10.828125 L 11.59375 -9.0625 L 11.59375 -6.109375 L 11.671875 -4.84375 C 11.710938 -4.238281 11.789062 -3.65625 11.90625 -3.09375 C 12.019531 -2.53125 12.21875 -2.015625 12.5 -1.546875 C 12.78125 -1.078125 13.15625 -0.703125 13.625 -0.421875 C 14.09375 -0.140625 14.703125 0 15.453125 0 C 18.222656 0 21.175781 -1.6875 24.3125 -5.0625 C 27.5 -8.382812 29.609375 -12.035156 30.640625 -16.015625 C 30.867188 -16.671875 31.3125 -17 31.96875 -17 Z M 3.9375 -21.578125 C 10.070312 -21.992188 15.128906 -24.144531 19.109375 -28.03125 C 21.128906 -30.050781 22.140625 -31.8125 22.140625 -33.3125 C 22.140625 -34.289062 21.410156 -34.78125 19.953125 -34.78125 C 18.222656 -34.78125 16.546875 -34.347656 14.921875 -33.484375 C 13.304688 -32.617188 11.820312 -31.539062 10.46875 -30.25 C 9.113281 -28.957031 7.875 -27.535156 6.75 -25.984375 C 5.625 -24.441406 4.6875 -22.972656 3.9375 -21.578125 Z M 3.9375 -21.578125 "/></g></g></g><g fill="#a40040" fill-opacity="1"><g transform="translate(218.770531, 146.324186)"><g><path d="M 34.21875 -17 C 35.007812 -17 35.40625 -16.554688 35.40625 -15.671875 L 35.40625 -15.453125 C 35.363281 -15.316406 35.296875 -15.109375 35.203125 -14.828125 C 34.503906 -12.296875 33.3125 -9.960938 31.625 -7.828125 C 29.9375 -5.703125 27.976562 -3.863281 25.75 -2.3125 C 23.53125 -0.769531 21.117188 0.429688 18.515625 1.296875 C 15.910156 2.160156 13.320312 2.59375 10.75 2.59375 C 6.769531 2.59375 3.582031 1.597656 1.1875 -0.390625 C -1.195312 -2.378906 -2.390625 -5.457031 -2.390625 -9.625 C -2.390625 -12.34375 -1.863281 -15.140625 -0.8125 -18.015625 C 0.238281 -20.898438 1.703125 -23.515625 3.578125 -25.859375 C 5.453125 -28.203125 7.65625 -30.132812 10.1875 -31.65625 C 12.71875 -33.175781 15.457031 -33.9375 18.40625 -33.9375 C 20.84375 -33.9375 22.738281 -33.128906 24.09375 -31.515625 C 25.457031 -29.898438 26.140625 -27.921875 26.140625 -25.578125 C 26.140625 -23.421875 25.613281 -21.425781 24.5625 -19.59375 C 23.507812 -17.769531 22.148438 -16.210938 20.484375 -14.921875 C 18.816406 -13.640625 16.960938 -12.632812 14.921875 -11.90625 C 12.890625 -11.1875 10.867188 -10.828125 8.859375 -10.828125 C 5.710938 -10.828125 2.945312 -11.664062 0.5625 -13.34375 C 0.46875 -12.644531 0.382812 -11.976562 0.3125 -11.34375 C 0.238281 -10.71875 0.203125 -10.125 0.203125 -9.5625 C 0.203125 -3.1875 3.648438 0 10.546875 0 C 12.929688 0 15.304688 -0.394531 17.671875 -1.1875 C 20.035156 -1.988281 22.234375 -3.09375 24.265625 -4.5 C 26.304688 -5.90625 28.085938 -7.585938 29.609375 -9.546875 C 31.140625 -11.515625 32.234375 -13.671875 32.890625 -16.015625 C 33.117188 -16.671875 33.5625 -17 34.21875 -17 Z M 18.40625 -31.34375 C 16.34375 -31.34375 14.398438 -30.882812 12.578125 -29.96875 C 10.753906 -29.050781 9.101562 -27.863281 7.625 -26.40625 C 6.144531 -24.957031 4.851562 -23.332031 3.75 -21.53125 C 2.65625 -19.726562 1.828125 -17.914062 1.265625 -16.09375 C 3.421875 -14.3125 5.90625 -13.421875 8.71875 -13.421875 C 10.351562 -13.421875 12.035156 -13.703125 13.765625 -14.265625 C 15.503906 -14.828125 17.109375 -15.632812 18.578125 -16.6875 C 20.054688 -17.738281 21.265625 -19.003906 22.203125 -20.484375 C 23.140625 -21.960938 23.609375 -23.613281 23.609375 -25.4375 C 23.609375 -27.070312 23.175781 -28.460938 22.3125 -29.609375 C 21.445312 -30.765625 20.144531 -31.34375 18.40625 -31.34375 Z M 18.40625 -31.34375 "/></g></g></g><g fill="#a40040" fill-opacity="1"><g transform="translate(252.774345, 146.324186)"><g><path d="M 25.359375 -16.9375 C 26.203125 -16.695312 26.507812 -16.15625 26.28125 -15.3125 C 25.570312 -12.789062 24.515625 -10.460938 23.109375 -8.328125 C 21.710938 -6.191406 20.03125 -4.335938 18.0625 -2.765625 C 16.09375 -1.203125 13.910156 0.046875 11.515625 0.984375 C 9.128906 1.921875 6.625 2.4375 4 2.53125 C 3.863281 2.570312 3.5625 2.59375 3.09375 2.59375 C -0.0390625 2.59375 -2.898438 1.257812 -5.484375 -1.40625 C -7.773438 -3.84375 -8.921875 -6.09375 -8.921875 -8.15625 C -8.921875 -9 -8.5 -9.421875 -7.65625 -9.421875 C -6.769531 -9.421875 -6.328125 -9 -6.328125 -8.15625 C -6.328125 -6.789062 -5.410156 -5.148438 -3.578125 -3.234375 C -1.566406 -1.078125 0.65625 0 3.09375 0 L 3.9375 0 C 7.3125 -0.226562 9.945312 -1.375 11.84375 -3.4375 C 13.738281 -5.5 14.6875 -8.21875 14.6875 -11.59375 C 14.6875 -12.945312 14.3125 -14.195312 13.5625 -15.34375 C 12.8125 -16.5 11.882812 -17.546875 10.78125 -18.484375 C 9.6875 -19.421875 8.503906 -20.273438 7.234375 -21.046875 C 5.972656 -21.816406 4.800781 -22.507812 3.71875 -23.125 L 2.390625 -18.6875 C 2.148438 -18.03125 1.945312 -17.429688 1.78125 -16.890625 C 1.625 -16.359375 1.5 -15.832031 1.40625 -15.3125 C 1.21875 -14.707031 0.796875 -14.40625 0.140625 -14.40625 L 0 -14.40625 L -0.203125 -14.46875 C -1.003906 -14.613281 -1.3125 -15.128906 -1.125 -16.015625 C -0.789062 -17.285156 -0.4375 -18.4375 -0.0625 -19.46875 L 0.625 -21.859375 C 0.8125 -22.367188 0.960938 -22.832031 1.078125 -23.25 C 1.203125 -23.675781 1.3125 -24.050781 1.40625 -24.375 C -3.5625 -27.09375 -6.046875 -29.671875 -6.046875 -32.109375 C -6.046875 -32.859375 -5.953125 -33.617188 -5.765625 -34.390625 C -5.578125 -35.160156 -5.296875 -35.863281 -4.921875 -36.5 C -4.546875 -37.132812 -4.039062 -37.648438 -3.40625 -38.046875 C -2.769531 -38.441406 -2.03125 -38.640625 -1.1875 -38.640625 C 1.007812 -38.640625 2.691406 -37.914062 3.859375 -36.46875 C 5.359375 -34.3125 5.523438 -30.703125 4.359375 -25.640625 L 6.671875 -24.375 L 8.921875 -22.984375 C 9.765625 -22.460938 10.535156 -21.941406 11.234375 -21.421875 C 11.941406 -20.910156 12.550781 -20.398438 13.0625 -19.890625 C 15.875 -17.359375 17.28125 -14.59375 17.28125 -11.59375 C 17.28125 -8.738281 16.601562 -6.160156 15.25 -3.859375 C 17.21875 -5.265625 18.972656 -7.054688 20.515625 -9.234375 C 22.066406 -11.410156 23.144531 -13.671875 23.75 -16.015625 C 23.976562 -16.671875 24.398438 -17 25.015625 -17 L 25.15625 -17 Z M 2.03125 -26.984375 C 2.78125 -30.921875 2.6875 -33.566406 1.75 -34.921875 C 1.1875 -35.671875 0.207031 -36.046875 -1.1875 -36.046875 C -1.988281 -36.046875 -2.578125 -35.578125 -2.953125 -34.640625 C -3.273438 -33.941406 -3.4375 -33.097656 -3.4375 -32.109375 C -3.4375 -30.890625 -1.613281 -29.179688 2.03125 -26.984375 Z M 2.03125 -26.984375 "/></g></g></g></g></g></svg>